<svg xmlns="http://www.w3.org/2000/svg" viewBox="0 0 512 512">
  <defs>
    <linearGradient id="background" x1="68" y1="40" x2="444" y2="472" gradientUnits="userSpaceOnUse">
      <stop stop-color="#10b981"/>
      <stop offset="0.55" stop-color="#047857"/>
      <stop offset="1" stop-color="#0f172a"/>
    </linearGradient>
    <filter id="shadow" x="-20%" y="-20%" width="140%" height="140%">
      <feDropShadow dx="0" dy="14" stdDeviation="18" flood-color="#022c22" flood-opacity=".25"/>
    </filter>
  </defs>
  <rect width="512" height="512" rx="112" fill="url(#background)"/>
  <circle cx="412" cy="92" r="112" fill="#67e8f9" opacity=".12"/>
  <circle cx="105" cy="445" r="145" fill="#6ee7b7" opacity=".1"/>
  <g filter="url(#shadow)" fill="none" stroke="#fff" stroke-width="28" stroke-linecap="round" stroke-linejoin="round">
    <path d="M132 169c0-24 20-44 44-44h181c24 0 44 20 44 44v177c0 24-20 44-44 44H160c-28 0-50-22-50-50V176c0-28 22-50 50-50"/>
    <path d="M110 192h291" opacity=".72"/>
    <path d="M318 245h83v83h-83c-23 0-42-19-42-42s19-41 42-41Z" fill="#fff" fill-opacity=".16"/>
    <path d="M329 286h1"/>
  </g>
</svg>
